<?xml version="1.0" encoding="utf-8"?>
<!-- Generator: Adobe Illustrator 15.0.0, SVG Export Plug-In  -->
<!DOCTYPE svg PUBLIC "-//W3C//DTD SVG 1.1//EN" "http://www.w3.org/Graphics/SVG/1.1/DTD/svg11.dtd" [
	<!ENTITY ns_flows "http://ns.adobe.com/Flows/1.0/">
]>
<svg version="1.1"
	 xmlns="http://www.w3.org/2000/svg" xmlns:xlink="http://www.w3.org/1999/xlink" xmlns:a="http://ns.adobe.com/AdobeSVGViewerExtensions/3.0/"
	 x="0px" y="0px" width="26px" height="26px" viewBox="247.273 315.639 26 26" enable-background="new 247.273 315.639 26 26"
	 xml:space="preserve">
<defs>
</defs>
<rect display="none" fill="#E0E0E0" width="2229.455" height="1311.244"/>
<rect x="247.273" y="315.639" display="none" fill="#C9C9C9" width="26" height="26"/>
<path fill="#828699" d="M271.579,336.509h-8.137l1.358-1.358c0.124-0.099,0.247-0.2,0.371-0.324l5.84-5.839
	c0.95-0.95,1.188-1.9,0.717-2.851c-0.13-0.402-0.343-0.774-0.647-1.079l-6.669-6.669c-0.512-0.486-1.194-0.752-1.899-0.741
	c-0.716-0.004-1.405,0.278-1.913,0.782l-11.425,11.343c-0.506,0.505-0.79,1.191-0.79,1.907c0,0.715,0.284,1.401,0.79,1.906
	l5.564,5.619h16.841c0.898,0,1.347-0.449,1.347-1.348C272.926,336.959,272.477,336.509,271.579,336.509z M259.643,336.509h-3.786
	l-4.783-4.783l3.627-3.61c0.108,0.138,0.224,0.276,0.362,0.414l6.289,6.289L259.643,336.509z"/>
</svg>
