<?xml version="1.0" encoding="utf-8"?>
<!-- Generator: Adobe Illustrator 15.0.0, SVG Export Plug-In  -->
<!DOCTYPE svg PUBLIC "-//W3C//DTD SVG 1.1//EN" "http://www.w3.org/Graphics/SVG/1.1/DTD/svg11.dtd" [
	<!ENTITY ns_flows "http://ns.adobe.com/Flows/1.0/">
]>
<svg version="1.1"
	 xmlns="http://www.w3.org/2000/svg" xmlns:xlink="http://www.w3.org/1999/xlink" xmlns:a="http://ns.adobe.com/AdobeSVGViewerExtensions/3.0/"
	 x="0px" y="0px" width="22px" height="22px" viewBox="434.273 425.639 22 22" enable-background="new 434.273 425.639 22 22"
	 xml:space="preserve">
<defs>
</defs>
<rect display="none" fill="#E0E0E0" width="2229.455" height="1311.244"/>
<rect x="434.273" y="425.639" display="none" fill="#C9C9C9" width="22" height="22"/>
<path fill="#F0423B" d="M454.273,428.992v10.855c0,0.359-0.142,0.704-0.396,0.958c-0.253,0.254-0.598,0.398-0.958,0.398h-1.791
	v-8.052c0-1.307-1.061-2.37-2.365-2.37h-8.056v-1.79c0-0.359,0.143-0.704,0.397-0.957c0.254-0.254,0.599-0.396,0.958-0.396h10.854
	C453.666,427.639,454.272,428.244,454.273,428.992L454.273,428.992z M454.273,428.992"/>
<path fill="#F0423B" d="M448.761,432.073H437.35c-0.595,0-1.077,0.482-1.077,1.077v11.412c0,0.595,0.482,1.077,1.077,1.077h11.411
	c0.595,0,1.077-0.482,1.077-1.077V433.15C449.837,432.555,449.355,432.073,448.761,432.073L448.761,432.073z M445.909,441.44h-5.714
	c-0.34,0-0.632-0.259-0.657-0.598c-0.014-0.179,0.048-0.355,0.17-0.487c0.123-0.132,0.294-0.207,0.474-0.207h5.713
	c0.34,0,0.632,0.258,0.657,0.598c0.013,0.179-0.049,0.356-0.171,0.488C446.26,441.365,446.088,441.44,445.909,441.44L445.909,441.44
	z M445.909,437.564h-5.714c-0.34,0-0.632-0.258-0.657-0.598c-0.014-0.179,0.048-0.356,0.17-0.488
	c0.123-0.132,0.294-0.207,0.474-0.207h5.713c0.34,0,0.632,0.258,0.657,0.598c0.013,0.179-0.049,0.355-0.171,0.487
	S446.088,437.564,445.909,437.564L445.909,437.564z M445.909,437.564"/>
</svg>
