<?xml version="1.0" encoding="utf-8"?>
<!-- Generator: Adobe Illustrator 15.0.0, SVG Export Plug-In  -->
<!DOCTYPE svg PUBLIC "-//W3C//DTD SVG 1.1//EN" "http://www.w3.org/Graphics/SVG/1.1/DTD/svg11.dtd" [
	<!ENTITY ns_flows "http://ns.adobe.com/Flows/1.0/">
]>
<svg version="1.1"
	 xmlns="http://www.w3.org/2000/svg" xmlns:xlink="http://www.w3.org/1999/xlink" xmlns:a="http://ns.adobe.com/AdobeSVGViewerExtensions/3.0/"
	 x="0px" y="0px" width="22px" height="22px" viewBox="506.273 425.639 22 22" enable-background="new 506.273 425.639 22 22"
	 xml:space="preserve">
<defs>
</defs>
<rect display="none" fill="#E0E0E0" width="2229.455" height="1311.244"/>
<rect x="506.273" y="425.639" display="none" fill="#C9C9C9" width="22" height="22"/>
<path fill="#F0423B" d="M509.476,429.924c0-0.605,0.447-1.095,1-1.095h5v-1.095c0-0.605,0.447-1.095,1-1.095h2
	c0.553,0,1,0.49,1,1.095v1.095h5c0.553,0,1,0.49,1,1.095v1.095h-16V429.924z M524.476,433.21v12.333c0,0.604-0.447,1.095-1,1.095
	h-12c-0.552,0-1-0.491-1-1.095v-13.429h14V433.21z M514.476,435.401c0-0.604-0.447-1.095-1-1.095c-0.552,0-1,0.491-1,1.095v7.952
	c0,0.604,0.448,1.095,1,1.095c0.553,0,1-0.491,1-1.095V435.401z M518.476,435.401c0-0.604-0.447-1.095-1-1.095
	c-0.552,0-1,0.491-1,1.095v7.952c0,0.604,0.448,1.095,1,1.095c0.553,0,1-0.491,1-1.095V435.401z M522.476,435.401
	c0-0.604-0.447-1.095-1-1.095s-1,0.491-1,1.095v7.952c0,0.604,0.447,1.095,1,1.095s1-0.491,1-1.095V435.401z M522.476,435.401"/>
</svg>
