<?xml version="1.0" encoding="utf-8"?>
<!-- Generator: Adobe Illustrator 15.0.0, SVG Export Plug-In  -->
<!DOCTYPE svg PUBLIC "-//W3C//DTD SVG 1.1//EN" "http://www.w3.org/Graphics/SVG/1.1/DTD/svg11.dtd" [
	<!ENTITY ns_flows "http://ns.adobe.com/Flows/1.0/">
]>
<svg version="1.1"
	 xmlns="http://www.w3.org/2000/svg" xmlns:xlink="http://www.w3.org/1999/xlink" xmlns:a="http://ns.adobe.com/AdobeSVGViewerExtensions/3.0/"
	 x="0px" y="0px" width="22px" height="22px" viewBox="545.273 425.639 22 22" enable-background="new 545.273 425.639 22 22"
	 xml:space="preserve">
<defs>
</defs>
<rect display="none" fill="#E0E0E0" width="2229.455" height="1311.244"/>
<rect x="545.273" y="425.639" display="none" fill="#C9C9C9" width="22" height="22"/>
<path fill="#999999" d="M555.583,436.407c0,0.507,0.419,0.919,0.935,0.919c0.517,0,0.935-0.412,0.935-0.919
	c0-0.508-0.418-0.919-0.935-0.919C556.002,435.488,555.583,435.899,555.583,436.407z M555.583,442.488
	c0,0.507,0.419,0.919,0.935,0.919c0.517,0,0.935-0.412,0.935-0.919s-0.418-0.919-0.935-0.919
	C556.002,441.569,555.583,441.98,555.583,442.488z M555.583,439.447c0,0.508,0.419,0.919,0.935,0.919
	c0.517,0,0.935-0.412,0.935-0.919s-0.418-0.919-0.935-0.919C556.002,438.528,555.583,438.939,555.583,439.447z M555.583,430.326
	c0,0.508,0.419,0.919,0.935,0.919c0.517,0,0.935-0.411,0.935-0.919s-0.418-0.919-0.935-0.919
	C556.002,429.407,555.583,429.818,555.583,430.326z M555.583,433.366c0,0.508,0.419,0.919,0.935,0.919
	c0.517,0,0.935-0.412,0.935-0.919c0-0.507-0.418-0.918-0.935-0.918C556.002,432.448,555.583,432.859,555.583,433.366z"/>
<path fill="#F0423B" d="M547.633,430.726l-1.257,1.236c-0.137,0.135-0.137,0.367,0,0.514l3.996,3.929l-3.996,3.941
	c-0.137,0.135-0.137,0.367,0,0.514l1.257,1.236c0.137,0.135,0.374,0.135,0.523,0l4.22-4.15c0.013-0.012,0.038-0.024,0.05-0.037
	l1.27-1.249c0.075-0.073,0.112-0.159,0.112-0.257s-0.037-0.184-0.112-0.257l-1.27-1.236c-0.012-0.012-0.025-0.024-0.05-0.037
	l-4.22-4.149C548.006,430.58,547.782,430.58,547.633,430.726L547.633,430.726z M547.633,430.726"/>
<path fill="#F0423B" d="M564.913,442.088l1.257-1.236c0.137-0.135,0.137-0.367,0-0.514l-3.996-3.929l3.996-3.941
	c0.137-0.134,0.137-0.367,0-0.514l-1.257-1.236c-0.137-0.135-0.374-0.135-0.523,0l-4.22,4.149c-0.012,0.012-0.037,0.024-0.05,0.037
	l-1.27,1.249c-0.075,0.073-0.112,0.159-0.112,0.257c0,0.098,0.037,0.184,0.112,0.257l1.27,1.236c0.013,0.013,0.025,0.025,0.05,0.037
	l4.22,4.149C564.54,442.235,564.764,442.235,564.913,442.088L564.913,442.088z M564.913,442.088"/>
</svg>
