<?xml version="1.0" encoding="utf-8"?>
<!-- Generator: Adobe Illustrator 15.0.0, SVG Export Plug-In  -->
<!DOCTYPE svg PUBLIC "-//W3C//DTD SVG 1.1//EN" "http://www.w3.org/Graphics/SVG/1.1/DTD/svg11.dtd" [
	<!ENTITY ns_flows "http://ns.adobe.com/Flows/1.0/">
]>
<svg version="1.1"
	 xmlns="http://www.w3.org/2000/svg" xmlns:xlink="http://www.w3.org/1999/xlink" xmlns:a="http://ns.adobe.com/AdobeSVGViewerExtensions/3.0/"
	 x="0px" y="0px" width="22px" height="22px" viewBox="581.273 425.639 22 22" enable-background="new 581.273 425.639 22 22"
	 xml:space="preserve">
<defs>
</defs>
<rect display="none" fill="#E0E0E0" width="2229.455" height="1311.244"/>
<rect x="581.273" y="425.639" display="none" fill="#C9C9C9" width="22" height="22"/>
<path fill="#999999" d="M592.444,435.718c-0.508,0-0.919,0.418-0.919,0.935c0,0.516,0.412,0.935,0.919,0.935
	s0.919-0.418,0.919-0.935C593.363,436.136,592.952,435.718,592.444,435.718z M586.363,435.718c-0.507,0-0.919,0.418-0.919,0.935
	c0,0.516,0.412,0.935,0.919,0.935c0.508,0,0.919-0.418,0.919-0.935C587.282,436.136,586.871,435.718,586.363,435.718z
	 M589.403,435.718c-0.507,0-0.919,0.418-0.919,0.935c0,0.516,0.412,0.935,0.919,0.935c0.508,0,0.919-0.418,0.919-0.935
	C590.323,436.136,589.911,435.718,589.403,435.718z M598.525,435.718c-0.508,0-0.919,0.418-0.919,0.935
	c0,0.516,0.412,0.935,0.919,0.935c0.507,0,0.919-0.418,0.919-0.935C599.444,436.136,599.032,435.718,598.525,435.718z
	 M595.484,435.718c-0.508,0-0.919,0.418-0.919,0.935c0,0.516,0.412,0.935,0.919,0.935s0.919-0.418,0.919-0.935
	C596.403,436.136,595.992,435.718,595.484,435.718z"/>
<path fill="#F0423B" d="M598.125,427.767l-1.236-1.257c-0.134-0.137-0.367-0.137-0.514,0l-3.929,3.996l-3.941-3.996
	c-0.135-0.137-0.367-0.137-0.514,0l-1.236,1.257c-0.135,0.137-0.135,0.373,0,0.522l4.149,4.22c0.012,0.012,0.024,0.037,0.037,0.05
	l1.249,1.27c0.074,0.075,0.159,0.112,0.257,0.112c0.098,0,0.184-0.038,0.257-0.112l1.236-1.27c0.012-0.013,0.024-0.025,0.037-0.05
	l4.149-4.22C598.271,428.14,598.271,427.917,598.125,427.767L598.125,427.767z M598.125,427.767"/>
<path fill="#F0423B" d="M586.763,445.047l1.236,1.257c0.134,0.137,0.367,0.137,0.514,0l3.929-3.996l3.941,3.996
	c0.135,0.137,0.367,0.137,0.514,0l1.236-1.257c0.135-0.137,0.135-0.374,0-0.522l-4.149-4.22c-0.012-0.012-0.024-0.037-0.037-0.05
	l-1.249-1.27c-0.074-0.075-0.159-0.112-0.257-0.112c-0.098,0-0.184,0.038-0.257,0.112l-1.236,1.27
	c-0.012,0.013-0.024,0.025-0.037,0.05l-4.149,4.22C586.616,444.673,586.616,444.897,586.763,445.047L586.763,445.047z
	 M586.763,445.047"/>
</svg>
