<?xml version="1.0" encoding="utf-8"?>
<!-- Generator: Adobe Illustrator 15.0.0, SVG Export Plug-In  -->
<!DOCTYPE svg PUBLIC "-//W3C//DTD SVG 1.1//EN" "http://www.w3.org/Graphics/SVG/1.1/DTD/svg11.dtd" [
	<!ENTITY ns_flows "http://ns.adobe.com/Flows/1.0/">
]>
<svg version="1.1"
	 xmlns="http://www.w3.org/2000/svg" xmlns:xlink="http://www.w3.org/1999/xlink" xmlns:a="http://ns.adobe.com/AdobeSVGViewerExtensions/3.0/"
	 x="0px" y="0px" width="22px" height="22px" viewBox="469.273 425.639 22 22" enable-background="new 469.273 425.639 22 22"
	 xml:space="preserve">
<defs>
</defs>
<rect display="none" fill="#E0E0E0" width="2229.455" height="1311.244"/>
<rect x="469.273" y="425.639" display="none" fill="#C9C9C9" width="22" height="22"/>
<path fill="#F0423B" d="M487.918,427.639h-10.855c-0.359,0-0.704,0.143-0.958,0.396c-0.254,0.253-0.397,0.598-0.397,0.957v1.79
	h8.056c1.304,0,2.365,1.063,2.365,2.37v8.052h1.791c0.359,0,0.704-0.144,0.958-0.397c0.254-0.255,0.396-0.6,0.396-0.958v-10.856
	C489.272,428.244,488.666,427.639,487.918,427.639z M483.761,432.073H472.35c-0.595,0-1.077,0.482-1.077,1.077v11.411
	c0,0.595,0.482,1.077,1.077,1.077h11.411c0.595,0,1.077-0.482,1.077-1.077V433.15C484.837,432.555,484.355,432.073,483.761,432.073z
	 M475.3,438.943c0.062-0.148,0.207-0.247,0.37-0.249h1.664v-3.921c-0.001-0.184,0.092-0.275,0.278-0.275h1.035
	c0.186,0,0.278,0.091,0.278,0.275v3.921h1.666c0.163,0.002,0.307,0.1,0.369,0.249c0.061,0.148,0.027,0.319-0.085,0.433l-2.462,2.437
	c-0.155,0.148-0.401,0.148-0.557,0l-2.472-2.437C475.272,439.262,475.238,439.092,475.3,438.943z M481.948,443.298h-7.638
	c-0.329-0.03-0.581-0.304-0.581-0.63s0.252-0.599,0.581-0.629h7.638c0.329,0.031,0.581,0.303,0.581,0.629
	C482.529,442.994,482.278,443.268,481.948,443.298z"/>
</svg>
