<?xml version="1.0" encoding="utf-8"?>
<!-- Generator: Adobe Illustrator 15.0.0, SVG Export Plug-In  -->
<!DOCTYPE svg PUBLIC "-//W3C//DTD SVG 1.1//EN" "http://www.w3.org/Graphics/SVG/1.1/DTD/svg11.dtd" [
	<!ENTITY ns_flows "http://ns.adobe.com/Flows/1.0/">
]>
<svg version="1.1"
	 xmlns="http://www.w3.org/2000/svg" xmlns:xlink="http://www.w3.org/1999/xlink" xmlns:a="http://ns.adobe.com/AdobeSVGViewerExtensions/3.0/"
	 x="0px" y="0px" width="26px" height="26px" viewBox="213.273 315.639 26 26" enable-background="new 213.273 315.639 26 26"
	 xml:space="preserve">
<defs>
</defs>
<rect display="none" fill="#E0E0E0" width="2229.455" height="1311.244"/>
<rect x="213.273" y="315.639" display="none" fill="#C9C9C9" width="26" height="26"/>
<path fill="#828699" d="M225.181,330.682c0.568,0.504,1.307,0.786,2.077,0.795c0.148,0.013,0.294-0.041,0.399-0.143l8.665-7.996
	c0.642-0.611,0.991-1.453,0.961-2.324c-0.03-0.871-0.438-1.688-1.122-2.258c-0.662-0.551-1.528-0.817-2.399-0.741
	c-0.871,0.078-1.672,0.493-2.219,1.151l-7.133,9.423c-0.089,0.117-0.123,0.266-0.092,0.41
	C224.418,329.632,224.72,330.221,225.181,330.682L225.181,330.682z M215.146,335.186c0.596,0.158,1.231-0.057,1.596-0.537
	c0.587-0.822,0.76-2.568,2.023-3.646c0.94-0.841,2.213-1.248,3.487-1.118c0.15,0.019,0.274,0.127,0.306,0.271
	c0.122,0.843,0.556,1.615,1.226,2.169c0.773,0.473,1.63,0.808,2.527,0.988c0.164,0.027,0.282,0.161,0.279,0.321
	c0.081,1.129,0,5.388-5.828,5.21C214.081,338.742,214.561,334.98,215.146,335.186L215.146,335.186z M215.146,335.186"/>
</svg>
