<?xml version="1.0" encoding="utf-8"?>
<!-- Generator: Adobe Illustrator 15.0.0, SVG Export Plug-In  -->
<!DOCTYPE svg PUBLIC "-//W3C//DTD SVG 1.1//EN" "http://www.w3.org/Graphics/SVG/1.1/DTD/svg11.dtd" [
	<!ENTITY ns_flows "http://ns.adobe.com/Flows/1.0/">
]>
<svg version="1.1"
	 xmlns="http://www.w3.org/2000/svg" xmlns:xlink="http://www.w3.org/1999/xlink" xmlns:a="http://ns.adobe.com/AdobeSVGViewerExtensions/3.0/"
	 x="0px" y="0px" width="26px" height="26px" viewBox="280.273 315.639 26 26" enable-background="new 280.273 315.639 26 26"
	 xml:space="preserve">
<defs>
</defs>
<rect display="none" fill="#E0E0E0" width="2229.455" height="1311.244"/>
<rect x="280.273" y="315.639" display="none" fill="#C9C9C9" width="26" height="26"/>
<path fill="#828699" d="M291.647,320.299l7.809,7.811l-8.925,8.925l-7.812-7.81L291.647,320.299 M290.531,319.184l-8.929,8.927
	c-0.619,0.617-0.619,1.614,0,2.231l7.812,7.81c0.617,0.619,1.612,0.619,2.231,0l8.925-8.925c0.617-0.617,0.617-1.614,0-2.231
	l-7.808-7.811C292.146,318.567,291.146,318.567,290.531,319.184L290.531,319.184z M281.603,330.342l7.812,7.81
	c0.617,0.619,1.612,0.619,2.231,0l8.925-8.925c0.308-0.308,0.464-0.711,0.462-1.116h-19.43
	C280.986,328.726,280.986,329.725,281.603,330.342L281.603,330.342z M283.834,318.066c-0.308,0.309-0.308,0.808,0,1.116l7.254,7.254
	c0.308,0.308,0.808,0.308,1.115,0c0.308-0.308,0.308-0.808,0-1.115l-7.254-7.254C284.642,317.759,284.143,317.759,283.834,318.066
	L283.834,318.066z M301.692,329.21c0,0-2.902,4.48-3.156,6.312c-0.434,3.126,1.578,3.494,3.156,3.494s3.464-0.352,3.156-3.494
	C304.683,333.838,301.692,329.21,301.692,329.21L301.692,329.21z M301.692,329.21"/>
</svg>
