<?xml version="1.0" encoding="utf-8"?>
<!-- Generator: Adobe Illustrator 15.0.0, SVG Export Plug-In  -->
<!DOCTYPE svg PUBLIC "-//W3C//DTD SVG 1.1//EN" "http://www.w3.org/Graphics/SVG/1.1/DTD/svg11.dtd" [
	<!ENTITY ns_flows "http://ns.adobe.com/Flows/1.0/">
]>
<svg version="1.1"
	 xmlns="http://www.w3.org/2000/svg" xmlns:xlink="http://www.w3.org/1999/xlink" xmlns:a="http://ns.adobe.com/AdobeSVGViewerExtensions/3.0/"
	 x="0px" y="0px" width="20px" height="20px" viewBox="176.273 426.639 20 20" enable-background="new 176.273 426.639 20 20"
	 xml:space="preserve">
<defs>
</defs>
<rect display="none" fill="#E0E0E0" width="2229.455" height="1311.244"/>
<rect x="176.273" y="426.639" display="none" fill="#C9C9C9" width="20" height="20"/>
<path fill="#F0423B" d="M189.304,435.771c-0.191,0.191-0.298,0.456-0.298,0.732s0.107,0.541,0.298,0.733
	c0.184,0.199,0.437,0.312,0.702,0.312s0.518-0.112,0.702-0.312l3.268-3.412c0.204-0.212,0.298-0.435,0.298-0.733
	c-0.009-0.274-0.116-0.535-0.298-0.731l-3.266-3.41c-0.184-0.199-0.437-0.312-0.702-0.312c-0.265,0-0.518,0.113-0.702,0.312
	c-0.19,0.191-0.298,0.456-0.298,0.732s0.108,0.541,0.298,0.733l1.488,1.55h-6.076c-3.454,0-6.302,2.489-6.438,5.602l-0.006,0.235
	c0,3.222,2.905,5.835,6.443,5.836h5.522c0.511,0,0.922-0.428,0.922-0.963c0-0.511-0.377-0.936-0.922-1.044h-5.52
	c-2.532,0-4.6-1.775-4.6-3.91c0-2.134,2.068-3.909,4.6-3.909h6.461L189.304,435.771L189.304,435.771z M189.305,435.771"/>
</svg>
