<?xml version="1.0" encoding="utf-8"?>
<!-- Generator: Adobe Illustrator 15.0.0, SVG Export Plug-In  -->
<!DOCTYPE svg PUBLIC "-//W3C//DTD SVG 1.1//EN" "http://www.w3.org/Graphics/SVG/1.1/DTD/svg11.dtd" [
	<!ENTITY ns_flows "http://ns.adobe.com/Flows/1.0/">
]>
<svg version="1.1"
	 xmlns="http://www.w3.org/2000/svg" xmlns:xlink="http://www.w3.org/1999/xlink" xmlns:a="http://ns.adobe.com/AdobeSVGViewerExtensions/3.0/"
	 x="0px" y="0px" width="20px" height="20px" viewBox="143.273 426.639 20 20" enable-background="new 143.273 426.639 20 20"
	 xml:space="preserve">
<defs>
</defs>
<rect display="none" fill="#E0E0E0" width="2229.455" height="1311.244"/>
<rect x="143.273" y="426.639" display="none" fill="#C9C9C9" width="20" height="20"/>
<path fill="#F0423B" d="M150.241,435.771l-1.875-1.959h6.461c2.532,0,4.6,1.775,4.6,3.909c0,2.135-2.068,3.91-4.6,3.91h-5.52
	c-0.545,0.109-0.922,0.534-0.922,1.044c0,0.535,0.411,0.963,0.922,0.963h5.522c3.538-0.001,6.443-2.614,6.443-5.836l-0.006-0.235
	c-0.137-3.112-2.985-5.602-6.438-5.602h-6.076l1.488-1.55c0.19-0.192,0.298-0.457,0.298-0.733s-0.108-0.541-0.298-0.732
	c-0.184-0.199-0.437-0.312-0.702-0.312c-0.265,0-0.518,0.113-0.701,0.312l-3.267,3.41c-0.183,0.197-0.289,0.458-0.298,0.731
	c0,0.298,0.095,0.521,0.298,0.733l3.268,3.412c0.184,0.199,0.437,0.312,0.702,0.312s0.518-0.112,0.702-0.312
	c0.191-0.192,0.298-0.457,0.298-0.733S150.433,435.963,150.241,435.771L150.241,435.771z M150.241,435.771"/>
</svg>
