<?xml version="1.0" encoding="utf-8"?>
<!-- Generator: Adobe Illustrator 15.0.0, SVG Export Plug-In  -->
<!DOCTYPE svg PUBLIC "-//W3C//DTD SVG 1.1//EN" "http://www.w3.org/Graphics/SVG/1.1/DTD/svg11.dtd" [
	<!ENTITY ns_flows "http://ns.adobe.com/Flows/1.0/">
]>
<svg version="1.1"
	 xmlns="http://www.w3.org/2000/svg" xmlns:xlink="http://www.w3.org/1999/xlink" xmlns:a="http://ns.adobe.com/AdobeSVGViewerExtensions/3.0/"
	 x="0px" y="0px" width="24px" height="24px" viewBox="253.273 424.639 24 24" enable-background="new 253.273 424.639 24 24"
	 xml:space="preserve">
<defs>
</defs>
<rect display="none" fill="#E0E0E0" width="2229.455" height="1311.244"/>
<rect x="253.273" y="424.639" display="none" fill="#C9C9C9" width="24" height="24"/>
<path fill="#F0423B" d="M262.53,427.639h-5.46c-0.439,0-0.797,0.357-0.797,0.797v5.46c0,0.44,0.357,0.798,0.797,0.798h0.041
	c0.439,0,0.797-0.358,0.797-0.798v-4.623h4.623c0.447,0,0.797-0.368,0.797-0.837C263.328,427.997,262.97,427.639,262.53,427.639z
	 M262.53,443.604h-4.623v-4.624c0-0.446-0.368-0.796-0.837-0.796c-0.439,0-0.797,0.357-0.797,0.796v5.461
	c0,0.25,0.133,0.484,0.364,0.641c0.155,0.105,0.296,0.156,0.433,0.156h5.46c0.447,0,0.797-0.368,0.797-0.837
	C263.328,443.961,262.97,443.604,262.53,443.604z M273.076,427.639h-5.46c-0.447,0-0.797,0.368-0.797,0.838
	c0,0.439,0.357,0.797,0.797,0.797h4.623v4.623c0,0.44,0.358,0.798,0.798,0.798h0.04c0.439,0,0.797-0.358,0.797-0.798v-5.46
	C273.873,427.996,273.515,427.639,273.076,427.639z M271.995,441.814l1.565-1.565c0.424-0.424,0.408-1.103-0.035-1.546
	c-0.201-0.202-0.47-0.313-0.755-0.313c-0.286,0-0.554,0.111-0.756,0.313l-1.565,1.565l-1.565-1.566
	c-0.202-0.202-0.47-0.313-0.756-0.313c-0.294,0-0.56,0.117-0.79,0.348c-0.202,0.201-0.313,0.47-0.313,0.755
	c0,0.286,0.111,0.554,0.313,0.755l1.565,1.566l-1.565,1.565c-0.424,0.424-0.409,1.103,0.034,1.546
	c0.202,0.202,0.47,0.313,0.756,0.313s0.554-0.111,0.756-0.313l1.565-1.565l1.565,1.565c0.202,0.202,0.47,0.313,0.756,0.313
	c0.293,0,0.56-0.117,0.791-0.348c0.417-0.416,0.417-1.094,0-1.511L271.995,441.814z"/>
</svg>
