<?xml version="1.0" encoding="utf-8"?>
<!-- Generator: Adobe Illustrator 15.0.0, SVG Export Plug-In  -->
<!DOCTYPE svg PUBLIC "-//W3C//DTD SVG 1.1//EN" "http://www.w3.org/Graphics/SVG/1.1/DTD/svg11.dtd" [
	<!ENTITY ns_flows "http://ns.adobe.com/Flows/1.0/">
]>
<svg version="1.1"
	 xmlns="http://www.w3.org/2000/svg" xmlns:xlink="http://www.w3.org/1999/xlink" xmlns:a="http://ns.adobe.com/AdobeSVGViewerExtensions/3.0/"
	 x="0px" y="0px" width="26px" height="26px" viewBox="379.273 315.639 26 26" enable-background="new 379.273 315.639 26 26"
	 xml:space="preserve">
<defs>
</defs>
<rect display="none" fill="#E0E0E0" width="2229.455" height="1311.244"/>
<rect x="379.273" y="315.639" display="none" fill="#C9C9C9" width="26" height="26"/>
<path fill="#828699" d="M392.273,337.639c-4.962,0-9-4.038-9-9c0-4.963,4.038-9,9-9c4.963,0,9,4.037,9,9
	C401.273,333.601,397.236,337.639,392.273,337.639L392.273,337.639z M392.273,321.743c-3.802,0-6.896,3.093-6.896,6.896
	s3.094,6.896,6.896,6.896c3.803,0,6.896-3.093,6.896-6.896S396.076,321.743,392.273,321.743L392.273,321.743z M392.273,321.743"/>
</svg>
