<?xml version="1.0" encoding="utf-8"?>
<!-- Generator: Adobe Illustrator 15.0.0, SVG Export Plug-In  -->
<!DOCTYPE svg PUBLIC "-//W3C//DTD SVG 1.1//EN" "http://www.w3.org/Graphics/SVG/1.1/DTD/svg11.dtd" [
	<!ENTITY ns_flows "http://ns.adobe.com/Flows/1.0/">
]>
<svg version="1.1"
	 xmlns="http://www.w3.org/2000/svg" xmlns:xlink="http://www.w3.org/1999/xlink" xmlns:a="http://ns.adobe.com/AdobeSVGViewerExtensions/3.0/"
	 x="0px" y="0px" width="26px" height="26px" viewBox="179.273 315.639 26 26" enable-background="new 179.273 315.639 26 26"
	 xml:space="preserve">
<defs>
</defs>
<rect display="none" fill="#E0E0E0" width="2229.455" height="1311.244"/>
<rect x="179.273" y="315.639" display="none" fill="#C9C9C9" width="26" height="26"/>
<path fill="#828699" d="M204.15,338.481l-4.25-4.25l3.531-1.961c0.76-0.422,0.692-1.538-0.115-1.864l-11.942-4.828
	c-0.847-0.342-1.689,0.5-1.347,1.347l4.828,11.942c0.327,0.808,1.442,0.875,1.864,0.115l1.961-3.531l4.25,4.25
	c0.169,0.169,0.39,0.253,0.611,0.253c0.221,0,0.441-0.084,0.61-0.253C204.488,339.365,204.488,338.819,204.15,338.481
	L204.15,338.481z M204.15,338.481"/>
<path fill="#828699" d="M196.23,318.161c-0.198-0.224-0.541-0.245-0.765-0.047l-13.518,11.936c-0.108,0.096-0.173,0.228-0.182,0.373
	c-0.009,0.145,0.039,0.284,0.135,0.392c0.096,0.108,0.228,0.173,0.373,0.182c0.012,0,0.023,0.001,0.035,0.001
	c0.132,0,0.258-0.047,0.358-0.136l13.517-11.935C196.407,318.729,196.428,318.385,196.23,318.161z"/>
<path fill="#828699" d="M198.661,322.28c-0.068-0.129-0.183-0.224-0.32-0.264c-3.713-1.148-7.73,0.032-10.234,3.007
	c-0.881,1.047-1.519,2.242-1.896,3.551c-0.361,1.257-0.461,2.562-0.297,3.877c0.035,0.276,0.267,0.475,0.543,0.475
	c0.021,0,0.042-0.001,0.063-0.003c0.145-0.019,0.274-0.092,0.363-0.208c0.088-0.115,0.127-0.256,0.108-0.398
	c-0.297-2.371,0.412-4.775,1.944-6.596c2.221-2.639,5.787-3.688,9.078-2.676c0.206,0.07,0.439,0.004,0.582-0.165
	c0.045-0.054,0.075-0.113,0.104-0.185C198.744,322.557,198.73,322.409,198.661,322.28z"/>
<path fill="#828699" d="M183.125,331.433c-0.641,0.566-1.629,0.504-2.195-0.136c-0.566-0.642-0.505-1.629,0.136-2.195
	s1.629-0.505,2.195,0.137C183.828,329.879,183.766,330.867,183.125,331.433L183.125,331.433z"/>
<path fill="#828699" d="M197.058,319.617c-0.641,0.566-1.629,0.504-2.195-0.136c-0.566-0.642-0.505-1.629,0.136-2.195
	s1.629-0.505,2.195,0.137C197.76,318.063,197.699,319.051,197.058,319.617L197.058,319.617z"/>
<path fill="#828699" d="M191.172,324.963l-1.893,1.671c-0.201,0.178-0.512,0.159-0.689-0.042l-1.672-1.893
	c-0.178-0.202-0.158-0.512,0.043-0.69l1.893-1.671c0.202-0.178,0.512-0.159,0.69,0.042l1.671,1.893
	C191.393,324.475,191.374,324.785,191.172,324.963L191.172,324.963z"/>
</svg>
