<?xml version="1.0" encoding="utf-8"?>
<!-- Generator: Adobe Illustrator 15.0.0, SVG Export Plug-In  -->
<!DOCTYPE svg PUBLIC "-//W3C//DTD SVG 1.1//EN" "http://www.w3.org/Graphics/SVG/1.1/DTD/svg11.dtd" [
	<!ENTITY ns_flows "http://ns.adobe.com/Flows/1.0/">
]>
<svg version="1.1"
	 xmlns="http://www.w3.org/2000/svg" xmlns:xlink="http://www.w3.org/1999/xlink" xmlns:a="http://ns.adobe.com/AdobeSVGViewerExtensions/3.0/"
	 x="0px" y="0px" width="26px" height="26px" viewBox="146.273 315.639 26 26" enable-background="new 146.273 315.639 26 26"
	 xml:space="preserve">
<defs>
</defs>
<rect display="none" fill="#E0E0E0" width="2229.455" height="1311.244"/>
<rect x="146.273" y="315.639" display="none" fill="#C9C9C9" width="26" height="26"/>
<path fill="#828699" d="M168.726,336.389l-5.88-5.881l4.886-2.714c1.051-0.584,0.958-2.127-0.159-2.58l-16.524-6.68
	c-1.171-0.474-2.337,0.692-1.863,1.863l6.68,16.524c0.453,1.118,1.995,1.21,2.58,0.159l2.714-4.886l5.881,5.88
	c0.233,0.234,0.539,0.351,0.845,0.351s0.611-0.117,0.845-0.351C169.193,337.611,169.193,336.856,168.726,336.389L168.726,336.389z
	 M168.726,336.389"/>
</svg>
