<?xml version="1.0" encoding="utf-8"?>
<!-- Generator: Adobe Illustrator 15.0.0, SVG Export Plug-In  -->
<!DOCTYPE svg PUBLIC "-//W3C//DTD SVG 1.1//EN" "http://www.w3.org/Graphics/SVG/1.1/DTD/svg11.dtd" [
	<!ENTITY ns_flows "http://ns.adobe.com/Flows/1.0/">
]>
<svg version="1.1"
	 xmlns="http://www.w3.org/2000/svg" xmlns:xlink="http://www.w3.org/1999/xlink" xmlns:a="http://ns.adobe.com/AdobeSVGViewerExtensions/3.0/"
	 x="0px" y="0px" width="18px" height="18px" viewBox="260.273 119.639 18 18" enable-background="new 260.273 119.639 18 18"
	 xml:space="preserve">
<defs>
</defs>
<rect display="none" fill="#E0E0E0" width="2229.455" height="1311.244"/>
<rect x="260.273" y="119.639" display="none" fill="#C9C9C9" width="18" height="18"/>
<g>
	<g>
		<g>
			<path fill="#FFFFFF" d="M276.01,121.639h-13.474c-0.716,0-1.263,0.537-1.263,1.239V134.4c0,0.661,0.547,1.239,1.263,1.239h13.474
				c0.674,0,1.263-0.578,1.263-1.239v-11.522C277.273,122.217,276.726,121.639,276.01,121.639L276.01,121.639z M265.399,123.745
				c0.716,0,1.347,0.578,1.347,1.322c0,0.743-0.589,1.322-1.347,1.322c-0.716,0-1.348-0.579-1.348-1.322
				C264.052,124.323,264.684,123.745,265.399,123.745L265.399,123.745z M264.431,133.78c-0.126,0-0.252-0.041-0.379-0.124
				c-0.252-0.206-0.252-0.496-0.042-0.743l2.61-3.593c0.21-0.207,0.505-0.248,0.758-0.083l2.274,1.569l4.084-4.295
				c0.211-0.207,1.221-1.28,1.811-0.083v7.31C275.546,133.78,264.431,133.78,264.431,133.78L264.431,133.78z M264.431,133.78"/>
		</g>
	</g>
</g>
</svg>
