<?xml version="1.0" encoding="utf-8"?>
<!-- Generator: Adobe Illustrator 15.0.0, SVG Export Plug-In  -->
<!DOCTYPE svg PUBLIC "-//W3C//DTD SVG 1.1//EN" "http://www.w3.org/Graphics/SVG/1.1/DTD/svg11.dtd" [
	<!ENTITY ns_flows "http://ns.adobe.com/Flows/1.0/">
]>
<svg version="1.1"
	 xmlns="http://www.w3.org/2000/svg" xmlns:xlink="http://www.w3.org/1999/xlink" xmlns:a="http://ns.adobe.com/AdobeSVGViewerExtensions/3.0/"
	 x="0px" y="0px" width="20px" height="20px" viewBox="206.273 387.639 20 20" enable-background="new 206.273 387.639 20 20"
	 xml:space="preserve">
<defs>
</defs>
<rect display="none" fill="#E0E0E0" width="2229.455" height="1311.244"/>
<rect x="206.273" y="387.639" display="none" fill="#C9C9C9" width="20" height="20"/>
<path fill="#BBBBBB" d="M223.218,403.989l-1.937-1.938c0.44-0.52,0.798-1.1,1.065-1.731c0.351-0.832,0.531-1.717,0.531-2.627
	c0-0.911-0.178-1.794-0.531-2.627c-0.34-0.804-0.826-1.523-1.446-2.144c-0.62-0.62-1.34-1.105-2.145-1.446
	c-0.833-0.35-1.716-0.528-2.626-0.528c-0.911,0-1.794,0.178-2.627,0.531c-0.804,0.34-1.524,0.826-2.144,1.446
	c-0.621,0.62-1.106,1.34-1.447,2.145c-0.351,0.831-0.529,1.715-0.529,2.625s0.178,1.794,0.531,2.627
	c0.34,0.804,0.826,1.523,1.446,2.144c0.62,0.62,1.34,1.106,2.144,1.446c0.833,0.352,1.717,0.532,2.627,0.532
	c0.91,0,1.794-0.178,2.627-0.532c0.631-0.267,1.21-0.625,1.73-1.064l1.935,1.936c0.219,0.218,0.577,0.218,0.795,0
	C223.437,404.565,223.437,404.208,223.218,403.989L223.218,403.989z M216.129,403.317c-3.105,0-5.623-2.517-5.623-5.622
	c0-3.105,2.518-5.623,5.623-5.623s5.623,2.517,5.623,5.623C221.752,400.8,219.234,403.317,216.129,403.317L216.129,403.317z
	 M216.129,403.317"/>
<path fill="#BBBBBB" d="M218.44,397.133h-1.749v-1.75c0-0.309-0.253-0.562-0.562-0.562c-0.31,0-0.563,0.253-0.563,0.562v1.75h-1.749
	c-0.31,0-0.563,0.253-0.563,0.563s0.253,0.562,0.563,0.562h1.749v1.75c0,0.309,0.253,0.562,0.563,0.562
	c0.309,0,0.562-0.253,0.562-0.562v-1.75h1.749c0.31,0,0.563-0.253,0.563-0.562S218.75,397.133,218.44,397.133L218.44,397.133z
	 M218.44,397.133"/>
</svg>
