<?xml version="1.0" encoding="utf-8"?>
<!-- Generator: Adobe Illustrator 15.0.0, SVG Export Plug-In  -->
<!DOCTYPE svg PUBLIC "-//W3C//DTD SVG 1.1//EN" "http://www.w3.org/Graphics/SVG/1.1/DTD/svg11.dtd" [
	<!ENTITY ns_flows "http://ns.adobe.com/Flows/1.0/">
]>
<svg version="1.1"
	 xmlns="http://www.w3.org/2000/svg" xmlns:xlink="http://www.w3.org/1999/xlink" xmlns:a="http://ns.adobe.com/AdobeSVGViewerExtensions/3.0/"
	 x="0px" y="0px" width="20px" height="20px" viewBox="276.273 387.639 20 20" enable-background="new 276.273 387.639 20 20"
	 xml:space="preserve">
<defs>
</defs>
<rect display="none" fill="#E0E0E0" width="2229.455" height="1311.244"/>
<rect x="276.273" y="387.639" display="none" fill="#C9C9C9" width="20" height="20"/>
<path fill="#BBBBBB" d="M291.419,392.641c-0.231-0.007-0.454,0.084-0.611,0.249c-0.158,0.155-0.245,0.364-0.242,0.583v8.333
	c-0.008,0.222,0.079,0.438,0.241,0.596c0.161,0.158,0.383,0.244,0.612,0.237c0.229,0.007,0.45-0.079,0.612-0.237
	c0.162-0.158,0.249-0.374,0.241-0.596v-8.335c0.007-0.223-0.082-0.438-0.243-0.596c-0.162-0.157-0.384-0.243-0.612-0.235v0.001
	H291.419z M281.125,392.641c-0.227,0-0.442,0.089-0.598,0.249c-0.164,0.151-0.256,0.362-0.254,0.583v8.333
	c-0.007,0.222,0.08,0.438,0.241,0.595c0.162,0.158,0.383,0.244,0.611,0.238c0.229,0.008,0.451-0.078,0.613-0.236
	c0.162-0.158,0.25-0.374,0.242-0.597v-8.335c0.001-0.217-0.086-0.426-0.244-0.581C281.579,392.725,281.356,392.634,281.125,392.641
	L281.125,392.641z M286.272,394.303c-0.23,0.012-0.448,0.104-0.612,0.263c-0.161,0.158-0.249,0.373-0.242,0.596v0.831
	c0,0.217,0.091,0.427,0.252,0.578c0.161,0.151,0.378,0.233,0.602,0.227c0.224,0.006,0.441-0.076,0.601-0.227
	c0.161-0.151,0.252-0.361,0.252-0.578v-0.831c0.007-0.226-0.086-0.442-0.254-0.596C286.708,394.412,286.498,394.319,286.272,394.303
	L286.272,394.303z M286.272,398.484c-0.229-0.007-0.45,0.078-0.613,0.235c-0.162,0.158-0.25,0.374-0.243,0.597v0.831
	c-0.007,0.223,0.081,0.439,0.243,0.596c0.163,0.158,0.384,0.243,0.613,0.235c0.229,0.007,0.45-0.077,0.611-0.235
	c0.162-0.158,0.25-0.373,0.242-0.596v-0.831c0.001-0.22-0.091-0.43-0.254-0.582c-0.156-0.159-0.373-0.249-0.599-0.249V398.484z
	 M286.272,398.484"/>
</svg>
