<?xml version="1.0" encoding="utf-8"?>
<!-- Generator: Adobe Illustrator 15.0.0, SVG Export Plug-In  -->
<!DOCTYPE svg PUBLIC "-//W3C//DTD SVG 1.1//EN" "http://www.w3.org/Graphics/SVG/1.1/DTD/svg11.dtd" [
	<!ENTITY ns_flows "http://ns.adobe.com/Flows/1.0/">
]>
<svg version="1.1"
	 xmlns="http://www.w3.org/2000/svg" xmlns:xlink="http://www.w3.org/1999/xlink" xmlns:a="http://ns.adobe.com/AdobeSVGViewerExtensions/3.0/"
	 x="0px" y="0px" width="20px" height="20px" viewBox="240.273 387.639 20 20" enable-background="new 240.273 387.639 20 20"
	 xml:space="preserve">
<defs>
</defs>
<rect display="none" fill="#E0E0E0" width="2229.455" height="1311.244"/>
<rect x="240.273" y="387.639" display="none" fill="#C9C9C9" width="20" height="20"/>
<path fill="#BBBBBB" d="M257.294,403.989l-1.937-1.938c0.44-0.52,0.798-1.099,1.065-1.73c0.352-0.833,0.531-1.717,0.531-2.627
	c0-0.911-0.178-1.795-0.531-2.627c-0.34-0.804-0.826-1.524-1.446-2.145c-0.621-0.62-1.341-1.105-2.145-1.446
	c-0.832-0.35-1.716-0.528-2.626-0.528s-1.794,0.179-2.626,0.532c-0.805,0.34-1.525,0.826-2.145,1.446
	c-0.621,0.62-1.106,1.34-1.446,2.144c-0.352,0.831-0.53,1.715-0.53,2.625s0.178,1.794,0.531,2.627
	c0.34,0.804,0.826,1.524,1.446,2.145c0.62,0.62,1.34,1.105,2.144,1.446c0.833,0.352,1.716,0.531,2.627,0.531
	s1.795-0.178,2.627-0.531c0.631-0.267,1.21-0.625,1.73-1.065l1.936,1.938c0.219,0.218,0.577,0.218,0.795,0
	C257.513,404.566,257.513,404.208,257.294,403.989L257.294,403.989z M250.205,403.318c-3.104,0-5.623-2.517-5.623-5.622
	s2.518-5.622,5.623-5.622c3.105,0,5.623,2.517,5.623,5.622S253.31,403.318,250.205,403.318L250.205,403.318z M250.205,403.318"/>
<path fill="#BBBBBB" d="M252.516,397.134h-4.623c-0.309,0-0.563,0.253-0.563,0.562s0.253,0.562,0.563,0.562h4.623
	c0.31,0,0.563-0.253,0.563-0.562S252.826,397.134,252.516,397.134L252.516,397.134z M252.516,397.134"/>
</svg>
